<svg width="440" height="440" viewBox="0 0 440 440" fill="none" xmlns="http://www.w3.org/2000/svg">
<path d="M405.769 263.072V308.951C405.769 312.939 404.185 316.764 401.364 319.584C398.544 322.404 394.719 323.988 390.731 323.988H226.215C222.229 323.985 218.407 322.4 215.589 319.58C212.772 316.76 211.189 312.937 211.189 308.951V270.179L190.699 248.662L390.688 248.046C392.666 248.039 394.626 248.422 396.455 249.174C398.284 249.926 399.947 251.032 401.348 252.428C402.75 253.824 403.861 255.482 404.62 257.309C405.378 259.136 405.769 261.094 405.769 263.072Z" fill="#F5F5F5"/>
<path d="M235.433 275.837L384.727 275.145L384.705 270.558L235.422 271.25L235.433 275.837Z" fill="#E6E6E6"/>
<path d="M235.433 290.928L384.727 290.247L384.705 285.66L235.422 286.341L235.433 290.928Z" fill="#E6E6E6"/>
<path d="M294.472 300.779L235.404 301.068L235.427 305.655L294.495 305.366L294.472 300.779Z" fill="#E6E6E6"/>
<path d="M114.202 0H211.232C212.369 0 213.494 0.223852 214.544 0.658775C215.594 1.0937 216.548 1.73118 217.352 2.53481C218.155 3.33844 218.793 4.2925 219.228 5.34249C219.663 6.39249 219.887 7.51788 219.887 8.65439V56.1562C219.887 58.4515 218.975 60.6527 217.352 62.2757C215.729 63.8988 213.527 64.8106 211.232 64.8106H128.893C126.598 64.8106 124.396 63.8988 122.773 62.2757C121.15 60.6527 120.238 58.4515 120.238 56.1562V5.99316L114.202 0Z" fill="#F5F5F5"/>
<path d="M236.104 86.3925V103.442C236.104 104.589 236.56 105.69 237.371 106.501C238.183 107.313 239.283 107.769 240.431 107.769H335.698C336.846 107.769 337.946 107.313 338.758 106.501C339.569 105.69 340.025 104.589 340.025 103.442V94.1273L350.963 82.4222L240.442 82.0653C239.873 82.0638 239.309 82.1747 238.782 82.3915C238.256 82.6084 237.778 82.9269 237.375 83.3288C236.972 83.7308 236.652 84.2083 236.434 84.734C236.216 85.2597 236.104 85.8233 236.104 86.3925Z" fill="#F0F0F0"/>
<path d="M171.885 52.4781V82.9091C171.887 84.2184 171.63 85.5151 171.13 86.7252C170.63 87.9353 169.896 89.0349 168.971 89.9612C168.046 90.8876 166.947 91.6224 165.737 92.1238C164.528 92.6252 163.231 92.8832 161.922 92.8832H52.7639C51.4545 92.8832 50.158 92.6252 48.9484 92.1238C47.7388 91.6224 46.64 90.8876 45.7146 89.9612C44.7892 89.0349 44.0555 87.9353 43.5554 86.7252C43.0554 85.5151 42.7987 84.2184 42.8001 82.9091V57.2055L29.2446 42.9258L161.889 42.5147C163.2 42.5104 164.5 42.765 165.712 43.2638C166.925 43.7626 168.027 44.4958 168.956 45.4214C169.884 46.347 170.621 47.4468 171.124 48.6577C171.627 49.8687 171.885 51.1669 171.885 52.4781Z" fill="#E0E0E0"/>
<path d="M58.9195 60.9487L157.93 60.4943L157.919 57.4543L58.9087 57.9087L58.9195 60.9487Z" fill="#F0F0F0"/>
<path d="M58.9195 70.9661L157.93 70.5009L157.919 67.461L58.9087 67.9153L58.9195 70.9661Z" fill="#F0F0F0"/>
<path d="M98.0674 77.4953L58.8944 77.6868L58.9093 80.7267L98.0823 80.5353L98.0674 77.4953Z" fill="#F0F0F0"/>
<path d="M11.0589 152.901V198.791C11.0589 200.766 11.4479 202.72 12.2037 204.544C12.9596 206.368 14.0674 208.025 15.4639 209.42C16.8604 210.816 18.5183 211.922 20.3426 212.677C22.167 213.431 24.1222 213.819 26.0965 213.818H190.612C192.586 213.819 194.542 213.431 196.366 212.677C198.19 211.922 199.848 210.816 201.245 209.42C202.641 208.025 203.749 206.368 204.505 204.544C205.261 202.72 205.65 200.766 205.65 198.791V160.02L226.129 138.503L26.1397 137.843C24.1595 137.837 22.1977 138.223 20.3668 138.977C18.5359 139.732 16.8721 140.84 15.4709 142.239C14.0696 143.639 12.9586 145.301 12.2014 147.13C11.4443 148.96 11.056 150.921 11.0589 152.901Z" fill="#F0F0F0"/>
<path d="M181.395 165.667L32.1006 164.985L32.1222 160.398L181.406 161.08L181.395 165.667Z" fill="#E6E6E6"/>
<path d="M181.395 180.769L32.1006 180.076L32.1222 175.489L181.406 176.182L181.395 180.769Z" fill="#E6E6E6"/>
<path d="M122.331 190.59L122.308 195.177L181.376 195.465L181.398 190.878L122.331 190.59Z" fill="#E6E6E6"/>
<path d="M334.031 44.7786C338.558 34.7149 334.07 22.8867 324.006 18.3597C313.941 13.8326 302.113 18.321 297.586 28.3847C293.058 38.4485 297.547 50.2767 307.611 54.8037C317.675 59.3308 329.504 54.8424 334.031 44.7786Z" fill="#F5F5F5"/>
<path d="M308.912 31.5453C309.658 31.4803 310.35 32.3134 310.437 33.406C310.523 34.4987 309.993 35.4399 309.236 35.5048C308.479 35.5697 307.786 34.7259 307.7 33.6332C307.613 32.5405 308.154 31.5993 308.912 31.5453Z" fill="#E0E0E0"/>
<path d="M310.664 26.4825C309.461 26.6313 308.271 26.8736 307.105 27.2073C306.001 27.7118 304.937 28.3014 303.924 28.9707C304.659 27.917 305.699 27.1136 306.904 26.6687C308.109 26.2238 309.421 26.1588 310.664 26.4825Z" fill="#E0E0E0"/>
<path d="M321.612 31.2856C320.844 31.2856 320.195 32.1078 320.152 33.2113C320.109 34.3148 320.682 35.2127 321.45 35.2452C322.218 35.2776 322.857 34.4122 322.9 33.3195C322.943 32.2268 322.37 31.3073 321.612 31.2856Z" fill="#E0E0E0"/>
<path d="M319.643 26.2985C320.866 25.9198 322.175 25.9242 323.396 26.3109C324.616 26.6977 325.689 27.4483 326.47 28.4622C325.435 27.8287 324.35 27.2823 323.224 26.8286C322.046 26.5628 320.849 26.3856 319.643 26.2985Z" fill="#E0E0E0"/>
<path d="M325.658 36.3701C325.667 36.7357 325.619 37.1005 325.518 37.4519C325.263 38.4132 324.854 39.3266 324.306 40.1565C323.522 41.4055 322.487 42.4776 321.266 43.3047C319.775 44.3607 318.014 44.9721 316.189 45.0678C314.365 45.1636 312.55 44.7398 310.956 43.8456C309.652 43.1459 308.507 42.1847 307.592 41.022C306.98 40.2461 306.498 39.3767 306.164 38.4472C306.013 38.1057 305.928 37.7385 305.915 37.3654C306.434 38.5684 307.107 39.6993 307.916 40.7299C308.812 41.8076 309.916 42.6943 311.162 43.3371C312.674 44.1566 314.384 44.5427 316.102 44.453C317.819 44.3632 319.479 43.8012 320.898 42.8287C322.082 42.0602 323.101 41.0635 323.895 39.8969C324.63 38.8006 325.222 37.6155 325.658 36.3701Z" fill="#E0E0E0"/>
<path d="M41.2422 261.168H44.1091L50.427 252.751V247.223C50.427 247.223 54.895 246.964 54.3758 254.201C53.8565 261.438 54.3758 259.61 54.3758 259.61C54.3758 259.61 63.8635 259.61 64.6533 260.432C65.2266 261.006 65.4863 270.028 65.5836 274.918C65.631 276.12 65.2697 277.303 64.5584 278.273C63.8472 279.244 62.8281 279.945 61.6674 280.262C61.3128 280.345 60.9499 280.389 60.5855 280.391C58.3353 280.337 46.2728 278.477 46.2728 278.477H41.2422V261.168Z" fill="#F0F0F0"/>
<path d="M32.9661 259.621L34.7403 278.542H39.6951V260L32.9661 259.621Z" fill="#F0F0F0"/>
<path d="M438.981 96.648C438.299 95.9172 437.359 95.4821 436.36 95.4356C435.361 95.3891 434.384 95.7349 433.637 96.3991C432.895 96.993 432.292 97.7427 431.872 98.5951C431.451 99.4476 431.223 100.382 431.203 101.332C431.027 100.381 430.646 99.4794 430.085 98.6908C429.524 97.9022 428.798 97.2456 427.958 96.767C427.122 96.2035 426.1 95.9878 425.109 96.1656C424.117 96.3433 423.233 96.9005 422.646 97.719C422.011 98.842 421.818 100.161 422.105 101.419C422.292 102.688 422.824 103.881 423.641 104.87C426.638 108.051 428.185 108.559 431.895 110.712C435.271 108.094 436.363 107.466 438.895 103.864C439.578 102.776 439.952 101.524 439.977 100.24C440.098 98.9608 439.743 97.6822 438.981 96.648Z" fill="#F0F0F0"/>
<path d="M260.715 388.528L148.117 387.998C144.897 387.985 141.711 387.338 138.741 386.094C135.771 384.849 133.075 383.032 130.808 380.745C128.54 378.459 126.745 375.748 125.526 372.768C124.306 369.788 123.686 366.596 123.7 363.376L124.901 81.1024C124.938 74.6028 127.553 68.3835 132.172 63.8099C136.79 59.2362 143.035 56.682 149.535 56.7079L262.133 57.2271C268.636 57.2586 274.861 59.8709 279.44 64.4897C284.018 69.1086 286.576 75.3563 286.55 81.8597L285.36 364.101C285.328 370.607 282.715 376.835 278.094 381.415C273.473 385.996 267.222 388.554 260.715 388.528Z" fill="#263238"/>
<path d="M261.971 66.9417L240.139 66.8444C239.427 66.8556 238.724 67.0074 238.07 67.2911C237.417 67.5747 236.826 67.9846 236.331 68.4973C235.837 69.0099 235.448 69.6152 235.188 70.2783C234.928 70.9414 234.802 71.6494 234.816 72.3615V76.3209C234.831 77.0331 234.704 77.741 234.444 78.4042C234.184 79.0673 233.796 79.6726 233.301 80.1852C232.807 80.6978 232.216 81.1077 231.562 81.3914C230.909 81.675 230.206 81.8269 229.494 81.8381L186.912 81.6434C186.199 81.6266 185.496 81.4689 184.844 81.1793C184.192 80.8898 183.604 80.4741 183.113 79.9563C182.622 79.4385 182.239 78.8287 181.985 78.1621C181.731 77.4955 181.611 76.7852 181.633 76.0721V72.1127C181.654 71.3997 181.535 70.6894 181.281 70.0228C181.027 69.3562 180.643 68.7464 180.153 68.2285C179.662 67.7107 179.074 67.295 178.422 67.0055C177.77 66.716 177.067 66.5583 176.354 66.5415H168.672L149.6 66.4441C147.343 66.4341 145.108 66.8686 143.019 67.7228C140.931 68.5769 139.032 69.8339 137.429 71.4221C135.827 73.0103 134.553 74.8985 133.681 76.979C132.808 79.0594 132.354 81.2914 132.344 83.5473L131.176 359.06C131.159 363.615 132.95 367.991 136.157 371.226C139.364 374.462 143.724 376.292 148.28 376.315L260.651 376.834C262.907 376.844 265.143 376.409 267.231 375.555C269.319 374.701 271.218 373.444 272.821 371.856C274.423 370.268 275.697 368.379 276.569 366.299C277.442 364.218 277.896 361.987 277.906 359.731L279.074 84.2181C279.086 81.9607 278.652 79.7231 277.799 77.6332C276.946 75.5433 275.689 73.6419 274.101 72.0376C272.512 70.4334 270.624 69.1576 268.542 68.2833C266.461 67.4089 264.228 66.9531 261.971 66.9417Z" fill="white"/>
<path d="M200.208 342.043C200.208 342.51 200.07 342.966 199.811 343.354C199.551 343.741 199.183 344.044 198.752 344.222C198.321 344.401 197.847 344.447 197.39 344.356C196.932 344.265 196.512 344.041 196.182 343.711C195.852 343.381 195.628 342.961 195.537 342.503C195.446 342.046 195.492 341.572 195.671 341.141C195.849 340.71 196.152 340.341 196.539 340.082C196.927 339.823 197.383 339.685 197.85 339.685C198.474 339.688 199.072 339.937 199.514 340.379C199.956 340.82 200.205 341.419 200.208 342.043Z" fill="#455A64"/>
<path d="M209.166 342.043C209.166 342.51 209.027 342.966 208.768 343.354C208.509 343.741 208.141 344.044 207.71 344.222C207.279 344.401 206.805 344.447 206.347 344.356C205.89 344.265 205.469 344.041 205.14 343.711C204.81 343.381 204.585 342.961 204.494 342.503C204.403 342.046 204.45 341.572 204.628 341.141C204.807 340.71 205.109 340.341 205.497 340.082C205.885 339.823 206.341 339.685 206.807 339.685C207.432 339.688 208.03 339.937 208.472 340.379C208.913 340.82 209.163 341.419 209.166 342.043Z" fill="#455A64"/>
<path d="M218.123 342.043C218.123 342.51 217.985 342.966 217.726 343.354C217.467 343.741 217.099 344.044 216.668 344.222C216.237 344.401 215.762 344.447 215.305 344.356C214.847 344.265 214.427 344.041 214.097 343.711C213.768 343.381 213.543 342.961 213.452 342.503C213.361 342.046 213.408 341.572 213.586 341.141C213.765 340.71 214.067 340.341 214.455 340.082C214.843 339.823 215.299 339.685 215.765 339.685C216.39 339.688 216.988 339.937 217.43 340.379C217.871 340.82 218.121 341.419 218.123 342.043Z" fill="#455A64"/>
<path d="M153.278 143.804C153.278 143.804 153.278 143.609 153.278 143.209C153.36 141.639 153.915 140.131 154.868 138.881C155.658 137.806 156.702 136.943 157.908 136.372C159.446 135.688 161.133 135.409 162.809 135.56H183.277L269.825 135.733H270.463L270.019 136.198L258.93 147.86L259.006 147.676V166.986C259.084 168.273 258.989 169.565 258.725 170.827C258.393 172.091 257.766 173.259 256.897 174.235C256.044 175.208 254.978 175.971 253.781 176.463C252.59 176.931 251.316 177.148 250.038 177.101H214.726L167.439 177.004H162.463C160.87 177.126 159.272 176.839 157.822 176.171C156.502 175.533 155.375 174.558 154.554 173.344C153.733 172.13 153.248 170.72 153.148 169.258C153.148 163.849 153.148 159.295 153.148 155.519C153.148 151.744 153.148 148.845 153.202 146.865C153.202 145.881 153.202 145.134 153.202 144.604C153.202 144.074 153.202 143.836 153.202 143.836C153.202 143.836 153.202 144.096 153.202 144.604C153.202 145.112 153.202 145.881 153.202 146.865C153.202 148.866 153.202 151.787 153.202 155.519C153.202 159.252 153.202 163.903 153.278 169.237C153.382 170.639 153.854 171.99 154.649 173.15C155.443 174.311 156.53 175.241 157.8 175.846C159.201 176.487 160.744 176.755 162.279 176.625H167.439L214.78 176.571H242.735H250.07C251.274 176.621 252.476 176.418 253.597 175.976C254.716 175.515 255.715 174.805 256.518 173.899C257.325 172.988 257.903 171.898 258.206 170.719C258.461 169.503 258.552 168.259 258.476 167.019V147.579L258.552 147.503L269.652 135.841L269.857 136.307L183.31 135.939L168.77 135.863H162.83C161.192 135.702 159.539 135.959 158.027 136.61C156.84 137.157 155.807 137.99 155.02 139.033C154.436 139.794 153.99 140.65 153.7 141.564C153.49 142.296 153.349 143.046 153.278 143.804Z" fill="#455A64"/>
<path d="M245.57 150.727L164.68 150.348L164.691 147.86L245.57 148.239V150.727Z" fill="#455A64"/>
<path d="M245.57 158.906L164.68 158.527L164.691 156.039L245.57 156.417V158.906Z" fill="#455A64"/>
<path d="M213.558 164.224L213.546 166.712L245.547 166.868L245.559 164.38L213.558 164.224Z" fill="#455A64"/>
<path d="M263.247 198.586V223.467C263.247 225.626 262.39 227.696 260.865 229.223C259.339 230.751 257.27 231.61 255.111 231.613H165.968C163.807 231.613 161.735 230.755 160.207 229.227C158.68 227.7 157.821 225.628 157.821 223.467V202.448L146.733 190.786L255.068 190.451C256.14 190.445 257.203 190.651 258.195 191.057C259.187 191.464 260.089 192.062 260.849 192.818C261.609 193.574 262.212 194.473 262.624 195.463C263.035 196.452 263.247 197.514 263.247 198.586Z" fill="#3E0AD4"/>
<path d="M170.966 205.509L251.855 205.131L251.844 202.643L170.955 203.021L170.966 205.509Z" fill="white"/>
<path d="M170.966 213.688L251.855 213.309L251.844 210.832L170.955 211.2L170.966 213.688Z" fill="white"/>
<path d="M202.939 219.021L170.939 219.178L170.951 221.666L202.951 221.51L202.939 219.021Z" fill="white"/>
<path d="M214.726 103.355C215.511 103.013 216.176 102.446 216.638 101.726C217.1 101.006 217.339 100.165 217.323 99.3093C217.351 98.7539 217.267 98.1984 217.074 97.6768C216.881 97.1551 216.584 96.6782 216.201 96.2749C215.818 95.8717 215.357 95.5506 214.846 95.3312C214.335 95.1117 213.784 94.9986 213.228 94.9986C212.672 94.9986 212.122 95.1117 211.61 95.3312C211.099 95.5506 210.638 95.8717 210.255 96.2749C209.872 96.6782 209.575 97.1551 209.382 97.6768C209.189 98.1984 209.105 98.7539 209.133 99.3093C209.112 100.172 209.349 101.021 209.813 101.747C210.278 102.474 210.949 103.045 211.741 103.388C205.433 104.34 205.715 111.199 205.715 111.199L220.633 111.264C220.633 111.264 220.979 104.307 214.726 103.355Z" fill="#3E0AD4"/>
<path opacity="0.5" d="M214.726 103.355C215.511 103.013 216.176 102.446 216.638 101.726C217.1 101.006 217.339 100.165 217.323 99.3093C217.351 98.7539 217.267 98.1984 217.074 97.6768C216.881 97.1551 216.584 96.6782 216.201 96.2749C215.818 95.8717 215.357 95.5506 214.846 95.3312C214.335 95.1117 213.784 94.9986 213.228 94.9986C212.672 94.9986 212.122 95.1117 211.61 95.3312C211.099 95.5506 210.638 95.8717 210.255 96.2749C209.872 96.6782 209.575 97.1551 209.382 97.6768C209.189 98.1984 209.105 98.7539 209.133 99.3093C209.112 100.172 209.349 101.021 209.813 101.747C210.278 102.474 210.949 103.045 211.741 103.388C205.433 104.34 205.715 111.199 205.715 111.199L220.633 111.264C220.633 111.264 220.979 104.307 214.726 103.355Z" fill="white"/>
<path d="M206.537 103.355C207.318 103.008 207.981 102.44 208.444 101.721C208.907 101.003 209.151 100.164 209.144 99.3093C209.185 98.7458 209.11 98.1799 208.922 97.647C208.735 97.114 208.439 96.6254 208.054 96.2117C207.67 95.798 207.204 95.468 206.686 95.2424C206.168 95.0167 205.609 94.9003 205.044 94.9003C204.479 94.9003 203.92 95.0167 203.402 95.2424C202.884 95.468 202.418 95.798 202.034 96.2117C201.649 96.6254 201.353 97.114 201.166 97.647C200.978 98.1799 200.903 98.7458 200.944 99.3093C200.922 100.172 201.159 101.021 201.624 101.747C202.088 102.474 202.76 103.045 203.551 103.388C197.244 104.34 197.525 111.199 197.525 111.199L212.444 111.264C212.444 111.264 212.79 104.307 206.537 103.355Z" fill="#3E0AD4"/>
<path d="M229.349 114.293L189.246 114.111L189.223 119.088L229.327 119.269L229.349 114.293Z" fill="#3E0AD4"/>
<path opacity="0.3" d="M229.349 114.293L189.246 114.111L189.223 119.088L229.327 119.269L229.349 114.293Z" fill="white"/>
<path d="M155.149 255.24C155.13 255.045 155.13 254.85 155.149 254.655C155.215 254.071 155.403 253.507 155.701 253C156.197 252.161 156.958 251.51 157.865 251.15C159.118 250.808 160.423 250.695 161.716 250.815H186.523L270.052 250.988H270.69L270.214 251.432L259.288 263.158L259.363 262.964V270.807C259.363 271.391 259.363 271.889 259.363 272.538C259.319 273.45 259.002 274.327 258.455 275.058C257.907 275.789 257.154 276.339 256.291 276.638C255.724 276.83 255.126 276.918 254.527 276.897H242.876H217.658L175.012 276.811H160.418C159.792 276.845 159.164 276.808 158.546 276.702C157.675 276.513 156.88 276.068 156.264 275.424C155.647 274.781 155.236 273.968 155.084 273.089C155.021 272.555 154.999 272.016 155.02 271.477C155.02 269.411 155.02 267.529 155.02 265.83C155.02 262.444 155.02 259.816 155.074 257.998C155.074 257.122 155.074 256.451 155.074 255.964C155.074 255.478 155.074 255.272 155.074 255.272C155.074 255.272 155.074 255.51 155.074 255.964C155.074 256.419 155.074 257.122 155.074 257.998C155.074 259.816 155.074 262.444 155.128 265.83C155.128 267.529 155.128 269.411 155.128 271.477C155.11 271.998 155.135 272.519 155.203 273.035C155.346 273.856 155.731 274.616 156.31 275.216C156.888 275.815 157.634 276.228 158.449 276.4C159.047 276.489 159.652 276.518 160.256 276.486H166.357H175.012L217.701 276.421H254.56C255.092 276.441 255.624 276.364 256.129 276.194C257.143 275.838 257.975 275.095 258.444 274.128C258.675 273.647 258.808 273.125 258.833 272.592C258.833 272.051 258.833 271.456 258.833 270.893V262.942L258.909 262.866L269.857 251.161L270.052 251.626L186.534 251.269L161.727 251.107C160.458 250.967 159.175 251.063 157.941 251.388C157.24 251.666 156.624 252.121 156.154 252.709C155.683 253.297 155.374 253.998 155.258 254.742C155.23 254.91 155.194 255.076 155.149 255.24Z" fill="#455A64"/>
<path d="M249.194 261.795L168.305 261.428L168.315 258.939L249.205 259.318L249.194 261.795Z" fill="#455A64"/>
<path d="M216.386 267.15L216.374 269.638L249.196 269.798L249.208 267.31L216.386 267.15Z" fill="#455A64"/>
<path d="M260.402 299.615V316.653C260.402 317.801 259.946 318.902 259.134 319.713C258.323 320.525 257.222 320.981 256.075 320.981H160.808C159.66 320.981 158.559 320.525 157.748 319.713C156.936 318.902 156.48 317.801 156.48 316.653V307.339L145.543 295.634L256.075 295.288C257.222 295.288 258.323 295.744 259.134 296.555C259.946 297.367 260.402 298.467 260.402 299.615Z" fill="#3E0AD4"/>
<path d="M166.368 306.171L247.257 305.803L247.247 303.315L166.357 303.693L166.368 306.171Z" fill="white"/>
<path d="M166.368 314.176L247.257 313.797L247.247 311.32L166.357 311.688L166.368 314.176Z" fill="white"/>
<path d="M390.785 95.3605C397.794 95.3605 403.475 89.6793 403.475 82.6711C403.475 75.6628 397.794 69.9816 390.785 69.9816C383.777 69.9816 378.095 75.6628 378.095 82.6711C378.095 89.6793 383.777 95.3605 390.785 95.3605Z" fill="#3E0AD4"/>
<path opacity="0.5" d="M390.785 95.3605C397.794 95.3605 403.475 89.6793 403.475 82.6711C403.475 75.6628 397.794 69.9816 390.785 69.9816C383.777 69.9816 378.095 75.6628 378.095 82.6711C378.095 89.6793 383.777 95.3605 390.785 95.3605Z" fill="white"/>
<path d="M386.577 79.0362C387.053 79.0362 387.486 79.5447 387.529 80.2371C387.572 80.9294 387.215 81.5244 386.728 81.5461C386.242 81.5677 385.82 81.0376 385.776 80.3452C385.733 79.6529 386.09 79.0578 386.577 79.0362Z" fill="#263238"/>
<path d="M387.756 75.8449C387.756 76.0288 386.674 75.9747 385.593 76.3858C384.511 76.7969 383.634 77.4677 383.505 77.3379C383.375 77.208 384.035 76.256 385.376 75.78C386.718 75.304 387.81 75.6826 387.756 75.8449Z" fill="#263238"/>
<path d="M396.952 81.016C396.811 81.1241 396.13 80.3885 395.037 80.2803C393.944 80.1721 393.122 80.7239 393.014 80.594C392.906 80.4642 393.101 80.2803 393.458 80.0315C393.951 79.7219 394.533 79.5849 395.113 79.642C395.691 79.7048 396.229 79.9646 396.638 80.3777C396.941 80.7022 397.017 80.9619 396.952 81.016Z" fill="#263238"/>
<path d="M398.045 78.8956C397.947 79.0471 396.963 78.517 395.546 78.4737C394.128 78.4304 393.101 78.8632 393.014 78.6901C393.34 78.354 393.742 78.101 394.187 77.9523C394.631 77.8036 395.104 77.7635 395.567 77.8354C397.147 77.8895 398.153 78.7766 398.045 78.8956Z" fill="#263238"/>
<path d="M397.147 82.4223C397.153 83.2993 396.872 84.1543 396.346 84.8564C395.793 85.7818 395.016 86.5533 394.087 87.0998C393.158 87.6463 392.106 87.9502 391.029 87.9836C389.951 88.017 388.882 87.7788 387.921 87.2909C386.96 86.8031 386.137 86.0812 385.528 85.1918C384.952 84.5289 384.62 83.6892 384.586 82.8117C384.959 83.5676 385.393 84.2913 385.885 84.9754C386.488 85.7472 387.264 86.366 388.151 86.7815C389.038 87.1971 390.01 87.3977 390.989 87.3672C391.968 87.3366 392.926 87.0757 393.786 86.6057C394.645 86.1356 395.381 85.4696 395.935 84.6617C396.391 83.9445 396.796 83.1962 397.147 82.4223Z" fill="#263238"/>
<path d="M35.6924 307.133C35.5838 310.661 34.4317 314.078 32.3817 316.951C30.3317 319.825 27.4758 322.026 24.175 323.276C20.8742 324.527 17.2767 324.771 13.8373 323.977C10.3979 323.184 7.27093 321.388 4.85175 318.818C2.43256 316.248 0.829742 313.018 0.245893 309.537C-0.337957 306.056 0.123381 302.48 1.57159 299.261C3.01979 296.042 5.38984 293.325 8.38215 291.453C11.3745 289.581 14.8547 288.638 18.3829 288.743C20.7274 288.813 23.0351 289.344 25.1741 290.306C27.3131 291.269 29.2415 292.643 30.8491 294.351C32.4566 296.059 33.7118 298.067 34.5428 300.26C35.3739 302.454 35.7645 304.789 35.6924 307.133Z" fill="#3E0AD4"/>
<path opacity="0.5" d="M35.6924 307.133C35.5838 310.661 34.4317 314.078 32.3817 316.951C30.3317 319.825 27.4758 322.026 24.175 323.276C20.8742 324.527 17.2767 324.771 13.8373 323.977C10.3979 323.184 7.27093 321.388 4.85175 318.818C2.43256 316.248 0.829742 313.018 0.245893 309.537C-0.337957 306.056 0.123381 302.48 1.57159 299.261C3.01979 296.042 5.38984 293.325 8.38215 291.453C11.3745 289.581 14.8547 288.638 18.3829 288.743C20.7274 288.813 23.0351 289.344 25.1741 290.306C27.3131 291.269 29.2415 292.643 30.8491 294.351C32.4566 296.059 33.7118 298.067 34.5428 300.26C35.3739 302.454 35.7645 304.789 35.6924 307.133Z" fill="white"/>
<path d="M14.3369 301.681C14.0213 301.27 13.5575 300.998 13.0443 300.923C12.5311 300.848 12.0089 300.977 11.589 301.281C11.1827 301.555 10.8401 301.913 10.5843 302.331C10.3286 302.75 10.1658 303.218 10.1069 303.704C10.0615 303.208 9.91056 302.728 9.66427 302.295C9.41798 301.862 9.08201 301.487 8.67887 301.194C8.2735 300.87 7.7587 300.713 7.24109 300.757C6.72349 300.802 6.24278 301.043 5.89853 301.432C5.52066 301.979 5.35876 302.645 5.44416 303.304C5.48058 303.965 5.69353 304.604 6.06081 305.154C7.15945 306.528 8.5062 307.684 10.0312 308.562C11.5345 307.767 12.8684 306.687 13.9583 305.381C14.3559 304.854 14.6061 304.23 14.6831 303.575C14.809 302.922 14.6854 302.247 14.3369 301.681Z" fill="#3E0AD4"/>
<path d="M30.0451 302.125C29.7296 301.713 29.2648 301.441 28.7508 301.368C28.2368 301.295 27.7148 301.427 27.2972 301.735C26.8879 302.006 26.543 302.364 26.2869 302.782C26.0308 303.201 25.8697 303.671 25.8151 304.159C25.7697 303.663 25.6187 303.182 25.3725 302.749C25.1262 302.316 24.7902 301.941 24.387 301.649C23.9827 301.321 23.4673 301.163 22.9489 301.208C22.4305 301.252 21.9495 301.495 21.6067 301.887C21.2269 302.432 21.0648 303.1 21.1523 303.758C21.1834 304.42 21.3968 305.06 21.769 305.608C22.8676 306.983 24.2144 308.139 25.7393 309.016C27.2381 308.214 28.5707 307.135 29.6664 305.836C30.0645 305.304 30.3146 304.677 30.3913 304.018C30.515 303.366 30.3916 302.691 30.0451 302.125Z" fill="#3E0AD4"/>
<path d="M23.6407 310.985C23.465 312.461 22.7366 313.817 21.6022 314.779C20.4677 315.74 19.0112 316.237 17.5256 316.168C16.04 316.1 14.6354 315.471 13.5942 314.409C12.5531 313.347 11.9526 311.93 11.9136 310.444L23.6407 310.985Z" fill="white"/>
<path d="M352.001 421.188L349.838 409.764L329.337 413.399L332.312 430.524L333.599 430.384C339.322 429.702 362.549 426.154 366.119 424.282C370.155 422.194 352.001 421.188 352.001 421.188Z" fill="#3E0AD4"/>
<path d="M366.498 423.146C366.498 423.34 358.925 424.909 349.448 426.651C339.971 428.393 332.312 429.647 332.279 429.453C332.247 429.258 339.852 427.7 349.318 425.958C358.785 424.217 366.433 422.962 366.498 423.146Z" fill="#263238"/>
<path d="M352.791 423.438C352.607 423.373 352.64 422.745 352.975 422.075C353.31 421.404 353.776 420.993 353.938 421.09C354.1 421.188 353.938 421.75 353.603 422.378C353.267 423.005 352.975 423.514 352.791 423.438Z" fill="#263238"/>
<path d="M354.241 423.968C354.046 423.968 354.014 423.243 354.241 422.453C354.468 421.664 354.966 421.144 355.139 421.231C355.312 421.317 355.139 421.956 354.912 422.68C354.684 423.405 354.436 424 354.241 423.968Z" fill="#263238"/>
<path d="M338.37 428.241C338.294 428.317 337.937 428.068 337.396 427.646C336.726 427.088 336.001 426.598 335.233 426.185C334.536 425.804 333.755 425.603 332.961 425.601C332.323 425.601 331.933 425.807 331.879 425.709C331.825 425.612 332.16 425.288 332.896 425.104C333.847 424.914 334.835 425.063 335.687 425.526C336.51 425.968 337.243 426.558 337.851 427.267C338.24 427.765 338.467 428.176 338.37 428.241Z" fill="#263238"/>
<path d="M352.434 421.274C352.564 421.415 352.283 421.88 351.742 422.204C351.201 422.529 350.66 422.551 350.595 422.367C350.53 422.183 350.909 421.88 351.385 421.588C351.861 421.296 352.326 421.144 352.434 421.274Z" fill="#263238"/>
<path d="M351.936 420.246C351.936 420.441 351.471 420.701 350.779 420.841C350.087 420.982 349.513 420.928 349.491 420.733C349.47 420.538 349.989 420.279 350.638 420.149C351.287 420.019 351.882 420.062 351.936 420.246Z" fill="#263238"/>
<path d="M376.667 300.405C370.317 287.585 336.282 237.996 336.282 237.996L318.118 239.9V239.792L297.79 242.02L286.582 243.253L327.162 420.484L355.225 419.976L348.475 387.187C353.116 375.557 380.183 307.501 376.667 300.405ZM347.717 308.053L337.689 334.979L326.329 279.807L347.717 308.053Z" fill="#263238"/>
<path d="M325.204 156.136C324.945 154.286 325.94 146.595 325.94 146.595C325.94 146.595 333.004 146.075 333.664 139.108C334.324 132.142 334.4 116.012 334.4 116.012L321.775 109.327L307.311 119.56L303.567 129.297L308.501 141.391L308.349 145.394V154.557L325.204 156.136Z" fill="#FFBE9D"/>
<path d="M333.459 127.696C333.454 127.874 333.397 128.046 333.294 128.192C333.191 128.337 333.048 128.448 332.882 128.512C332.715 128.576 332.534 128.588 332.36 128.549C332.187 128.509 332.029 128.418 331.907 128.289C331.785 128.159 331.704 127.996 331.675 127.821C331.646 127.645 331.67 127.465 331.743 127.302C331.817 127.14 331.937 127.004 332.088 126.91C332.239 126.816 332.415 126.77 332.593 126.776C332.711 126.779 332.826 126.805 332.934 126.853C333.041 126.901 333.137 126.969 333.218 127.055C333.299 127.14 333.361 127.241 333.403 127.351C333.444 127.461 333.463 127.578 333.459 127.696Z" fill="#263238"/>
<path d="M333.524 126.754C333.405 126.873 332.755 126.289 331.803 126.203C330.851 126.116 330.105 126.56 330.008 126.43C329.91 126.3 330.083 126.159 330.408 125.954C330.843 125.692 331.352 125.578 331.858 125.629C332.36 125.672 332.835 125.877 333.21 126.213C333.491 126.484 333.578 126.711 333.524 126.754Z" fill="#263238"/>
<path d="M322.143 126.603C322.286 126.708 322.395 126.853 322.456 127.02C322.517 127.186 322.527 127.367 322.485 127.54C322.443 127.713 322.351 127.869 322.22 127.989C322.089 128.109 321.926 128.188 321.75 128.215C321.575 128.242 321.395 128.217 321.234 128.142C321.073 128.067 320.938 127.946 320.845 127.794C320.753 127.643 320.708 127.467 320.715 127.29C320.723 127.112 320.783 126.941 320.888 126.798C320.957 126.702 321.045 126.622 321.146 126.561C321.246 126.499 321.358 126.458 321.475 126.44C321.591 126.422 321.71 126.427 321.825 126.455C321.939 126.483 322.047 126.533 322.143 126.603Z" fill="#263238"/>
<path d="M322.846 126.419C322.727 126.527 322.088 125.943 321.126 125.867C320.163 125.792 319.427 126.224 319.33 126.084C319.232 125.943 319.405 125.824 319.73 125.618C320.165 125.355 320.673 125.238 321.18 125.283C321.687 125.328 322.165 125.537 322.543 125.878C322.824 126.138 322.911 126.365 322.846 126.419Z" fill="#263238"/>
<path d="M326.059 134.663C326.577 134.547 327.108 134.496 327.638 134.511C327.887 134.511 328.125 134.511 328.19 134.306C328.223 134.036 328.182 133.763 328.071 133.516C327.887 132.878 327.692 132.207 327.476 131.504C326.914 129.789 326.48 128.035 326.178 126.257C326.419 126.729 326.607 127.226 326.74 127.739C327.043 128.669 327.444 129.957 327.822 131.395C328.017 132.099 328.212 132.78 328.385 133.419C328.521 133.74 328.544 134.099 328.45 134.435C328.411 134.52 328.352 134.593 328.279 134.65C328.205 134.706 328.119 134.744 328.028 134.76C327.888 134.78 327.746 134.78 327.606 134.76C327.088 134.789 326.569 134.756 326.059 134.663Z" fill="#263238"/>
<path d="M322.857 135.463C321.894 134.792 325.486 137.161 327.455 137.215C327.087 137.7 326.565 138.044 325.974 138.192C325.384 138.339 324.762 138.281 324.209 138.027C322.208 137.086 322.857 135.463 322.857 135.463Z" fill="white"/>
<path d="M325.94 146.595C322.626 146.35 319.45 145.164 316.787 143.176C316.787 143.176 318.713 148.369 325.734 148.304L325.94 146.595Z" fill="#EB996E"/>
<path d="M309.323 131.244C309.323 131.244 309.225 131.32 309.052 131.417C308.808 131.531 308.531 131.551 308.273 131.471C307.874 131.252 307.541 130.93 307.308 130.538C307.076 130.146 306.954 129.698 306.953 129.243C306.905 128.733 306.972 128.219 307.148 127.739C307.193 127.55 307.283 127.376 307.412 127.23C307.54 127.085 307.702 126.974 307.884 126.906C308 126.865 308.126 126.866 308.241 126.91C308.356 126.953 308.452 127.036 308.511 127.144C308.598 127.306 308.565 127.436 308.598 127.436C308.63 127.436 308.728 127.328 308.663 127.09C308.621 126.944 308.529 126.818 308.403 126.733C308.319 126.674 308.224 126.634 308.123 126.613C308.023 126.593 307.919 126.593 307.819 126.614C307.578 126.677 307.357 126.8 307.177 126.972C306.997 127.145 306.864 127.36 306.791 127.598C306.57 128.132 306.481 128.711 306.532 129.286C306.538 129.818 306.7 130.336 306.998 130.776C307.296 131.217 307.717 131.56 308.208 131.763C308.37 131.801 308.537 131.801 308.699 131.763C308.86 131.726 309.011 131.652 309.139 131.547C309.323 131.352 309.344 131.255 309.323 131.244Z" fill="#EB996E"/>
<path d="M336.206 117.17C335.825 117.297 335.429 117.374 335.027 117.397C336.343 116.706 337.423 115.641 338.132 114.335C338.65 113.433 338.923 112.411 338.923 111.371C338.923 110.331 338.65 109.309 338.132 108.407C337.574 107.535 336.714 106.898 335.716 106.619C334.719 106.34 333.653 106.437 332.723 106.893C333.081 106.148 333.157 105.299 332.936 104.503C332.715 103.707 332.213 103.019 331.522 102.565C330.804 102.14 330 101.881 329.168 101.808C328.337 101.735 327.5 101.85 326.719 102.143C325.161 102.744 323.702 103.575 322.391 104.61C322.293 104.05 322.062 103.522 321.718 103.071C321.373 102.619 320.925 102.256 320.412 102.014C319.378 101.534 318.222 101.387 317.101 101.592C315.473 101.871 313.971 102.643 312.796 103.804C311.622 104.965 310.832 106.458 310.534 108.083C310.024 107.559 309.387 107.175 308.685 106.969C307.983 106.763 307.24 106.741 306.527 106.905C305.814 107.069 305.155 107.414 304.614 107.906C304.073 108.398 303.668 109.022 303.437 109.716C303.442 109.766 303.442 109.817 303.437 109.867C302.789 110.149 302.244 110.625 301.88 111.231C301.572 111.747 301.382 112.325 301.324 112.924C301.266 113.522 301.341 114.126 301.544 114.692C301.958 115.804 302.716 116.756 303.708 117.408C304.088 117.675 304.424 118 304.703 118.37C304.917 118.694 305.047 119.066 305.082 119.452C304.985 121.789 303.794 123.996 303.21 126.289C302.41 129.47 304.173 133.808 305.19 136.923C306.207 140.039 306.564 141.25 308.544 141.499L308.847 133.126C306.683 134.9 303.794 128.799 305.688 126.365C307.581 123.931 309.593 124.764 309.939 126.3C310.073 126.89 310.243 127.472 310.448 128.042H312.611L312.373 126.213C312.373 126.213 311.93 118.089 315.814 117.559C316.828 117.344 317.885 117.538 318.756 118.1C320.008 118.604 321.364 118.793 322.705 118.652C324.09 118.652 325.951 117.072 325.951 115.698C326.743 116.623 327.747 117.342 328.877 117.796C330.007 118.25 331.23 118.425 332.442 118.306C333.068 118.24 333.683 118.091 334.27 117.862C335.002 118.065 335.777 118.046 336.499 117.808C337.241 117.567 337.891 117.102 338.359 116.477C338.706 115.99 338.77 115.623 338.706 115.59C337.993 116.287 337.141 116.825 336.206 117.17ZM303.968 116.91C303.086 116.297 302.414 115.429 302.042 114.422C301.866 113.934 301.798 113.414 301.841 112.897C301.884 112.38 302.037 111.878 302.291 111.425C302.518 110.991 302.849 110.62 303.254 110.343C302.886 112.799 304.487 115.287 304.909 117.851C304.648 117.502 304.347 117.186 304.011 116.91H303.968Z" fill="#3E0AD4"/>
<path d="M373.4 127.328V141.272C373.4 142.79 374.003 144.245 375.076 145.319C376.15 146.392 377.605 146.995 379.123 146.995H403.281V154.968L407.608 147.341C408.89 147.248 410.089 146.673 410.964 145.732C411.839 144.79 412.326 143.553 412.325 142.267V127.328C412.324 126.571 412.172 125.821 411.879 125.123C411.586 124.425 411.158 123.792 410.618 123.261C410.079 122.73 409.439 122.311 408.737 122.029C408.035 121.746 407.283 121.606 406.526 121.616H379.123C377.607 121.616 376.153 122.217 375.08 123.288C374.007 124.359 373.403 125.812 373.4 127.328Z" fill="#3E0AD4"/>
<path d="M386.545 135.041C386.545 135.507 386.406 135.963 386.147 136.351C385.888 136.739 385.52 137.041 385.089 137.22C384.658 137.398 384.184 137.445 383.726 137.354C383.269 137.263 382.848 137.039 382.519 136.709C382.189 136.379 381.964 135.959 381.873 135.501C381.782 135.044 381.829 134.569 382.007 134.138C382.186 133.708 382.488 133.339 382.876 133.08C383.264 132.821 383.72 132.683 384.186 132.683C384.812 132.683 385.412 132.931 385.854 133.373C386.296 133.816 386.545 134.416 386.545 135.041Z" fill="white"/>
<path d="M395.502 135.041C395.502 135.507 395.364 135.963 395.105 136.351C394.846 136.739 394.477 137.041 394.046 137.22C393.615 137.398 393.141 137.445 392.684 137.354C392.226 137.263 391.806 137.039 391.476 136.709C391.146 136.379 390.922 135.959 390.831 135.501C390.74 135.044 390.786 134.569 390.965 134.138C391.143 133.708 391.446 133.339 391.834 133.08C392.221 132.821 392.677 132.683 393.144 132.683C393.769 132.683 394.369 132.931 394.811 133.373C395.254 133.816 395.502 134.416 395.502 135.041Z" fill="white"/>
<path d="M404.46 135.041C404.46 135.507 404.322 135.963 404.063 136.351C403.803 136.739 403.435 137.041 403.004 137.22C402.573 137.398 402.099 137.445 401.641 137.354C401.184 137.263 400.764 137.039 400.434 136.709C400.104 136.379 399.879 135.959 399.788 135.501C399.697 135.044 399.744 134.569 399.923 134.138C400.101 133.708 400.403 133.339 400.791 133.08C401.179 132.821 401.635 132.683 402.102 132.683C402.727 132.683 403.327 132.931 403.769 133.373C404.212 133.816 404.46 134.416 404.46 135.041Z" fill="white"/>
<path d="M392.462 168.771C391.975 167.69 361.251 194.81 355.128 195.741L337.213 172.395C337.213 172.395 333.491 166.5 325.496 156.396C320.347 149.905 306.12 151.225 302.377 159.176C296.027 172.666 295.81 190.548 290.899 219.281L286.745 243.654C286.745 243.654 292.879 242.929 292.857 242.983L336.477 238.45L337.559 209.242C346.213 217.982 348.853 219.811 353.343 219.118C364.626 217.366 404.103 181.861 404.103 181.861C404.103 181.861 392.938 169.875 392.462 168.771Z" fill="#455A64"/>
<path d="M398.78 186.827C397.992 186.348 397.265 185.774 396.617 185.118C393.242 182.121 390.3 178.669 387.875 174.862C387.328 174.1 386.881 173.271 386.545 172.395C387.13 173.097 387.661 173.842 388.135 174.624C389.13 176.02 390.547 177.924 392.246 179.914C393.944 181.905 395.589 183.603 396.811 184.815C397.522 185.43 398.181 186.103 398.78 186.827Z" fill="#263238"/>
<path d="M353.386 204.99C353.572 201.854 354.124 198.749 355.031 195.741C354.859 198.879 354.307 201.985 353.386 204.99Z" fill="#263238"/>
<path d="M357.302 204.028C356.669 202.756 356.207 201.407 355.928 200.014C355.464 198.673 355.184 197.276 355.095 195.86C355.724 197.133 356.185 198.482 356.469 199.873C356.927 201.216 357.208 202.612 357.302 204.028Z" fill="#263238"/>
<path opacity="0.2" d="M314.397 178.594L337.104 221.52L337.613 208.787L314.397 178.594Z" fill="black"/>
<path d="M312.925 176.506C313.322 176.908 313.684 177.342 314.007 177.804L316.712 181.428C318.994 184.501 322.186 188.709 325.767 193.328L334.962 205.109L337.721 208.701C338.077 209.127 338.395 209.583 338.673 210.064C338.28 209.686 337.918 209.277 337.591 208.841C336.845 207.933 335.871 206.764 334.692 205.358C332.269 202.394 328.947 198.283 325.366 193.674C321.786 189.066 318.637 184.804 316.43 181.677C315.349 180.109 314.451 178.832 313.866 177.934C313.51 177.488 313.195 177.01 312.925 176.506Z" fill="#263238"/>
<path d="M313.639 189.921C313.454 189.502 313.32 189.063 313.239 188.612C313.023 187.757 312.741 186.535 312.406 185.031L312.741 185.193L308.273 187.606L307.97 187.768L307.873 187.433C307.711 186.849 307.538 186.232 307.354 185.604L306.575 182.802L306.975 182.965L302.572 185.442L302.302 185.594V185.291C302.045 183.956 301.894 182.603 301.847 181.245C302.239 182.547 302.528 183.878 302.713 185.226L302.399 185.074L306.726 182.489L307.029 182.305L307.127 182.651C307.375 183.549 307.646 184.49 307.916 185.453C308.1 186.08 308.273 186.697 308.436 187.281L308.035 187.119L312.547 184.771L312.817 184.62L312.871 184.923C313.152 186.427 313.38 187.671 313.509 188.536C313.611 188.99 313.655 189.456 313.639 189.921Z" fill="#263238"/>
<path d="M318.973 165.656C318.541 165.491 318.134 165.269 317.761 164.996C317.015 164.531 315.965 163.849 314.689 163.005L315.035 162.886C314.581 164.325 314.072 165.97 313.52 167.733L313.412 168.068L313.109 167.895L311.465 166.933L308.955 165.461L309.355 165.299L307.916 170.146L307.83 170.438L307.592 170.254C306.481 169.469 305.433 168.601 304.454 167.657C305.637 168.327 306.769 169.083 307.841 169.918L307.516 170.027C307.895 168.599 308.338 166.954 308.825 165.158L308.922 164.812L309.225 164.996L311.746 166.446L313.39 167.409L312.99 167.56L314.57 162.724L314.678 162.432L314.927 162.605C316.171 163.492 317.188 164.228 317.891 164.769C318.287 165.019 318.65 165.317 318.973 165.656Z" fill="#263238"/>
<path d="M334.908 173.997C334.528 173.735 334.182 173.426 333.88 173.077C333.253 172.46 332.366 171.563 331.306 170.459H331.673C330.916 171.768 330.051 173.25 329.131 174.862L328.958 175.154L328.698 174.916L327.303 173.629L325.139 171.649L325.572 171.573C324.663 173.207 323.83 174.689 323.105 175.976L322.954 176.247L322.759 176.02C321.85 175.002 321.018 173.917 320.271 172.774C321.28 173.685 322.22 174.668 323.084 175.717H322.737L325.085 171.249L325.258 170.935L325.518 171.173L327.681 173.153L329.066 174.451H328.644L331.262 170.124L331.425 169.864L331.63 170.091C332.712 171.173 333.491 172.168 334.054 172.839C334.391 173.183 334.679 173.573 334.908 173.997Z" fill="#E0E0E0"/>
<path d="M376.927 201.312C376.927 201.312 376.559 200.966 376.018 200.284C375.477 199.603 374.709 198.597 373.8 197.363H374.168L371.096 201.409L370.879 201.68L370.663 201.42L369.43 199.96L367.58 197.731H368.013L365.016 201.788L364.832 202.037L364.67 201.788C363.896 200.672 363.205 199.5 362.603 198.283C363.49 199.301 364.296 200.386 365.016 201.528H364.67C365.524 200.328 366.498 198.932 367.569 197.396L367.775 197.115L368.002 197.385L369.873 199.614L371.096 201.074H370.663L373.811 197.093L374.006 196.844L374.179 197.093C375.055 198.359 375.759 199.397 376.245 200.133C376.515 200.5 376.743 200.895 376.927 201.312Z" fill="#263238"/>
<path d="M350.909 199.127C350.52 198.904 350.157 198.64 349.827 198.337C349.134 197.796 348.15 197.006 346.971 196.044L347.328 195.957L345.272 200.587L345.142 200.901L344.861 200.696L343.314 199.614L340.967 197.883L341.388 197.764C340.674 199.495 340.025 201.009 339.452 202.426L339.333 202.719L339.117 202.502C338.093 201.612 337.142 200.643 336.271 199.603C337.378 200.388 338.423 201.256 339.398 202.199L339.063 202.275C339.593 200.89 340.209 199.3 340.88 197.569L341.01 197.234L341.291 197.439L343.65 199.148L345.186 200.23L344.764 200.349L346.863 195.719L346.992 195.438L347.22 195.632C348.366 196.649 349.308 197.482 349.957 198.077C350.606 198.672 350.941 199.084 350.909 199.127Z" fill="#E0E0E0"/>
<path d="M388.135 193.015C387.988 192.581 387.893 192.13 387.854 191.673C387.724 190.797 387.551 189.51 387.356 188.038L387.681 188.222L383.007 190.235L382.693 190.364L382.628 190.029C382.52 189.423 382.401 188.796 382.282 188.157C382.098 187.162 381.925 186.21 381.763 185.291L382.142 185.485L377.544 187.606L377.262 187.725V187.422C377.13 186.07 377.104 184.71 377.187 183.354C377.455 184.688 377.618 186.041 377.674 187.4L377.381 187.216L381.936 185.053L382.25 184.89L382.315 185.247C382.488 186.167 382.672 187.119 382.856 188.103C382.975 188.752 383.083 189.38 383.191 189.975L382.812 189.769L387.518 187.855L387.81 187.736V188.038C387.951 189.564 388.059 190.819 388.113 191.695C388.171 192.133 388.178 192.576 388.135 193.015Z" fill="#E0E0E0"/>
<path d="M336.271 181.483C335.917 181.763 335.533 182.003 335.125 182.197C334.367 182.629 333.264 183.278 331.879 183.96L331.944 183.592L335.482 187.238L335.72 187.487L335.427 187.671L333.805 188.655L331.317 190.17V189.737L334.887 193.307L335.103 193.534L334.822 193.653C333.604 194.255 332.342 194.762 331.046 195.168C332.198 194.445 333.403 193.809 334.649 193.264L334.594 193.61L330.938 190.126L330.678 189.888L330.981 189.705L333.469 188.179L335.092 187.195V187.617C333.826 186.275 332.647 185.009 331.619 183.906L331.403 183.679L331.684 183.549C333.058 182.878 334.194 182.326 334.984 181.969C335.389 181.75 335.822 181.587 336.271 181.483Z" fill="#263238"/>
<path d="M356.123 204.99C355.769 205.284 355.38 205.535 354.966 205.737C354.208 206.169 353.105 206.818 351.72 207.489L351.774 207.132L355.323 210.778L355.561 211.016L355.269 211.2L353.646 212.195L351.147 213.699L351.201 213.277L354.771 216.847L354.987 217.063L354.706 217.182C353.486 217.782 352.224 218.292 350.93 218.708C352.104 217.986 353.33 217.353 354.598 216.815L354.533 217.161L350.887 213.677L350.627 213.428L350.93 213.245L353.408 211.73L355.041 210.735L354.987 211.167L351.515 207.457L351.298 207.229L351.569 207.1C352.943 206.418 354.079 205.877 354.879 205.509C355.27 205.283 355.688 205.109 356.123 204.99Z" fill="#E0E0E0"/>
<path d="M316.733 204.677C316.552 204.253 316.418 203.81 316.333 203.357C316.117 202.502 315.835 201.28 315.5 199.787L315.835 199.938L311.324 202.372L311.021 202.545L310.935 202.21C310.762 201.615 310.588 200.998 310.415 200.371C310.145 199.408 309.874 198.467 309.626 197.569L310.026 197.731L305.634 200.209L305.363 200.36V200.057C305.115 198.725 304.963 197.376 304.909 196.022C305.303 197.32 305.592 198.648 305.774 199.992L305.461 199.841L309.788 197.255L310.091 197.082L310.188 197.418C310.437 198.315 310.707 199.257 310.989 200.219L311.497 202.059L311.097 201.886L315.608 199.538L315.879 199.397L315.944 199.689C316.225 201.193 316.441 202.437 316.582 203.303C316.687 203.753 316.738 204.214 316.733 204.677Z" fill="#E0E0E0"/>
<path d="M334.757 214.889C334.573 214.466 334.439 214.023 334.356 213.569C334.14 212.714 333.859 211.492 333.523 209.999L333.859 210.15L329.402 212.585L329.099 212.758L329.001 212.422C328.828 211.827 328.655 211.211 328.482 210.594C328.212 209.62 327.952 208.679 327.692 207.781L328.093 207.943L323.7 210.421L323.43 210.572V210.28C323.182 208.944 323.03 207.592 322.975 206.234C323.368 207.533 323.657 208.86 323.841 210.204L323.527 210.064L327.855 207.478L328.157 207.294L328.255 207.641C328.515 208.538 328.774 209.469 329.055 210.432L329.564 212.271L329.174 212.098L333.675 209.75L333.956 209.609L334.01 209.902C334.292 211.405 334.508 212.649 334.649 213.515C334.746 213.966 334.782 214.428 334.757 214.889Z" fill="#263238"/>
<path d="M308.306 237.369C308.121 236.95 307.986 236.51 307.905 236.06C307.689 235.205 307.408 233.982 307.072 232.49L307.408 232.641L302.951 235.075L302.648 235.237L302.55 234.902C302.377 234.318 302.204 233.701 302.031 233.074L301.252 230.272L301.642 230.434L297.26 232.955L296.99 233.106V232.803C296.74 231.467 296.588 230.115 296.535 228.757C296.927 230.06 297.216 231.391 297.401 232.738L297.087 232.587L301.414 230.001L301.717 229.817L301.815 230.164C302.074 231.061 302.334 232.003 302.615 232.966L303.124 234.794L302.734 234.632L307.235 232.284L307.516 232.133L307.57 232.435C307.851 233.939 308.068 235.183 308.208 236.049C308.304 236.482 308.337 236.926 308.306 237.369Z" fill="#E0E0E0"/>
<path d="M308.825 213.774C308.415 213.564 308.033 213.302 307.689 212.995C306.986 212.476 305.991 211.697 304.801 210.734L305.158 210.648L303.2 215.343L303.07 215.657L302.788 215.451C302.28 215.105 301.761 214.726 301.231 214.369L298.872 212.671L299.283 212.552L297.401 217.236L297.282 217.518L297.066 217.312C296.036 216.426 295.071 215.468 294.177 214.445C295.299 215.211 296.359 216.065 297.347 216.998L297.011 217.085C297.52 215.7 298.093 214.099 298.775 212.357L298.894 212.022L299.186 212.227L301.588 213.893L303.135 214.975L302.724 215.083L304.768 210.432L304.898 210.15L305.125 210.345C306.283 211.351 307.235 212.173 307.884 212.768C308.236 213.066 308.552 213.403 308.825 213.774Z" fill="#263238"/>
<path d="M318.259 214.413C317.934 214.731 317.57 215.007 317.177 215.235C316.452 215.722 315.392 216.403 314.094 217.214V216.847L317.891 220.233L318.14 220.471L317.858 220.666L316.311 221.747L313.931 223.424V223.002L317.815 226.334L318.042 226.54L317.783 226.681C316.607 227.364 315.381 227.957 314.115 228.455C315.216 227.651 316.373 226.928 317.577 226.291V226.637L313.683 223.392L313.412 223.165L313.704 222.959L316.073 221.271L317.62 220.19V220.622L313.899 217.171L313.672 216.955L313.931 216.803C315.251 216.035 316.344 215.408 317.123 214.986C317.476 214.748 317.858 214.556 318.259 214.413Z" fill="#263238"/>
<path d="M328.634 221.79C328.431 222.203 328.176 222.589 327.876 222.937C327.357 223.651 326.589 224.646 325.648 225.858L325.561 225.501L330.278 227.394L330.592 227.513L330.397 227.805L329.315 229.374L327.649 231.765L327.519 231.343L332.225 233.161L332.517 233.28L332.312 233.496C331.445 234.543 330.498 235.519 329.477 236.417C330.24 235.294 331.082 234.227 331.998 233.225L332.085 233.561L327.335 231.862L327 231.743L327.205 231.451C327.725 230.683 328.287 229.883 328.85 229.05C329.229 228.519 329.586 227.968 329.932 227.492L330.051 227.903L325.388 225.923L325.107 225.804L325.301 225.566C326.286 224.387 327.097 223.402 327.681 222.775C328.266 222.147 328.634 221.758 328.634 221.79Z" fill="#E0E0E0"/>
<path d="M322.748 239.424C322.748 239.424 322.748 239.543 322.867 239.781C322.986 240.019 323.051 240.397 323.181 240.863C323.441 241.804 323.83 243.199 324.263 245.006C324.696 246.812 325.247 249.019 325.626 251.648C325.884 253.081 325.691 254.559 325.074 255.878C324.39 257.34 323.452 258.669 322.305 259.805V259.621C325.139 273.078 329.11 291.934 333.513 312.791C337.786 333.345 341.605 351.898 344.331 365.367C345.683 372.096 346.754 377.548 347.458 381.323C347.815 383.206 348.074 384.677 348.237 385.65C348.355 386.154 348.413 386.669 348.41 387.187C348.41 387.187 348.323 386.667 348.128 385.672C347.934 384.677 347.62 383.195 347.241 381.345C346.452 377.548 345.326 372.117 343.942 365.421C341.129 351.952 337.267 333.389 332.993 312.889C328.666 292.01 324.75 273.143 321.959 259.686V259.578L322.034 259.502C324.328 257.198 325.875 254.288 325.28 251.67C324.934 249.063 324.404 246.834 324.003 245.027C323.603 243.221 323.257 241.858 323.019 240.873L322.759 239.792C322.741 239.67 322.738 239.546 322.748 239.424Z" fill="#455A64"/>
<path d="M299.965 242.02C299.965 242.02 300.138 242.258 300.3 242.756C300.531 243.456 300.67 244.183 300.711 244.919C300.89 247.391 300.145 249.841 298.619 251.794C297.094 253.747 294.898 255.064 292.457 255.489C291.744 255.622 291.017 255.665 290.293 255.619C290.023 255.624 289.755 255.576 289.503 255.478C289.503 255.37 290.65 255.478 292.413 255.1C294.713 254.594 296.764 253.301 298.212 251.444C299.659 249.588 300.413 247.284 300.343 244.93C300.275 243.954 300.148 242.982 299.965 242.02Z" fill="#455A64"/>
<path d="M318.086 243.178C318.086 243.178 318.086 243.015 318.345 242.875C318.507 242.781 318.686 242.72 318.872 242.696C319.058 242.672 319.246 242.685 319.427 242.734C319.707 242.803 319.96 242.954 320.153 243.168C320.345 243.382 320.47 243.649 320.509 243.935C320.561 244.293 320.493 244.658 320.314 244.972C320.135 245.287 319.857 245.533 319.522 245.671C319.188 245.809 318.817 245.831 318.469 245.734C318.12 245.637 317.814 245.427 317.599 245.136C317.422 244.91 317.311 244.64 317.279 244.356C317.246 244.071 317.293 243.783 317.415 243.524C317.858 242.647 318.572 242.626 318.551 242.691C318.529 242.756 318.032 242.95 317.793 243.664C317.723 243.857 317.705 244.064 317.741 244.265C317.778 244.467 317.866 244.655 317.999 244.811C318.16 244.993 318.371 245.124 318.606 245.187C318.84 245.251 319.088 245.244 319.319 245.168C319.536 245.064 319.716 244.897 319.836 244.688C319.955 244.479 320.009 244.239 319.99 244C319.975 243.798 319.9 243.606 319.775 243.448C319.649 243.29 319.479 243.173 319.286 243.113C318.889 243.006 318.469 243.028 318.086 243.178Z" fill="#455A64"/>
<path d="M340.956 245.579C340.339 246.015 339.611 246.266 338.857 246.304C337.038 246.577 335.182 246.179 333.635 245.184C332.088 244.188 330.956 242.664 330.451 240.895C330.191 240.205 330.12 239.458 330.245 238.731C330.343 238.731 330.364 239.575 330.819 240.819C331.392 242.444 332.488 243.833 333.934 244.769C335.381 245.704 337.097 246.134 338.814 245.991C340.134 245.817 340.923 245.493 340.956 245.579Z" fill="#455A64"/>
<path d="M352.834 410.975C352.482 411.072 352.118 411.116 351.753 411.105L348.81 411.267L339.073 411.733L329.337 412.241L326.383 412.36C326.025 412.411 325.66 412.411 325.302 412.36C325.65 412.241 326.015 412.176 326.383 412.165C327.065 412.079 328.071 411.971 329.315 411.862C331.793 411.635 335.233 411.386 339.052 411.192C342.871 410.997 346.3 410.91 348.788 410.9C350.033 410.9 351.039 410.9 351.742 410.9C352.108 410.874 352.476 410.9 352.834 410.975Z" fill="#455A64"/>
<path d="M303.448 254.363C303.6 254.363 312.103 289.446 322.478 332.794C332.853 376.141 341.107 411.332 340.956 411.365C340.804 411.397 332.301 376.293 321.926 332.924C311.551 289.554 303.297 254.396 303.448 254.363Z" fill="#455A64"/>
<path d="M331.133 255.759C331.207 255.83 331.272 255.91 331.327 255.997L331.858 256.7L333.87 259.459L341.161 269.638L351.926 284.784L358.254 293.752C360.418 296.867 362.582 300.361 363.155 304.472C363.729 308.583 362.528 312.553 361.284 316.112C360.04 319.672 358.676 323.133 357.421 326.39C354.89 332.88 352.488 338.744 350.4 343.601C348.312 348.458 346.549 352.363 345.316 355.046L343.855 358.129L343.466 358.919C343.368 359.092 343.325 359.19 343.314 359.179C343.333 359.081 343.366 358.986 343.412 358.898C343.498 358.681 343.617 358.411 343.758 358.075L345.11 354.96C346.289 352.245 347.999 348.318 350.032 343.449C352.066 338.581 354.436 332.74 356.935 326.206C358.179 322.96 359.466 319.509 360.754 315.929C362.041 312.348 363.166 308.507 362.603 304.548C362.041 300.589 359.91 297.17 357.8 294.065L351.504 285.086L340.837 269.822L333.686 259.534L331.771 256.722C331.565 256.419 331.403 256.181 331.284 255.986C331.165 255.791 331.122 255.759 331.133 255.759Z" fill="#455A64"/>
<path d="M386.112 169.876L410.269 152.242L411.459 154.135L387.453 171.985L386.112 169.876Z" fill="#263238"/>
<path d="M392.084 169.334C392.084 169.334 395.329 160.896 396.054 159.1C396.779 157.304 398.012 154.178 398.477 154.113C398.943 154.048 400.641 154.308 398.423 159.673C396.205 165.039 401.03 161.761 401.03 161.761L405.682 158.429C405.682 158.429 409.361 169.421 407.273 172.731C405.629 175.208 403.784 177.546 401.755 179.719L392.084 169.334Z" fill="#FFBE9D"/>
<path d="M85.4898 309.2C85.8035 307.371 85.1111 300.686 85.1111 300.686C85.1111 300.686 78.1008 299.94 77.6789 292.994C77.2569 286.049 77.6789 270.017 77.6789 270.017L90.4446 263.775L104.509 274.409L102.345 309.167L85.4898 309.2Z" fill="#B78876"/>
<path d="M79.6154 281.636C79.6154 281.871 79.7088 282.096 79.8752 282.263C80.0415 282.429 80.2672 282.523 80.5025 282.523C80.7377 282.523 80.9634 282.429 81.1297 282.263C81.2961 282.096 81.3896 281.871 81.3896 281.636C81.3896 281.519 81.3666 281.404 81.322 281.296C81.2775 281.188 81.2121 281.091 81.1297 281.008C81.0474 280.926 80.9496 280.861 80.8419 280.816C80.7343 280.771 80.619 280.748 80.5025 280.748C80.386 280.748 80.2706 280.771 80.163 280.816C80.0554 280.861 79.9575 280.926 79.8752 281.008C79.7928 281.091 79.7275 281.188 79.6829 281.296C79.6383 281.404 79.6154 281.519 79.6154 281.636Z" fill="#263238"/>
<path d="M78.317 280.997C78.4252 281.105 79.0851 280.554 80.0372 280.5C80.9892 280.446 81.714 280.911 81.8222 280.781C81.9304 280.651 81.7465 280.51 81.4327 280.294C81.0102 280.017 80.5091 279.884 80.0047 279.915C79.5 279.95 79.0192 280.143 78.6308 280.467C78.3495 280.716 78.2521 280.943 78.317 280.997Z" fill="#263238"/>
<path d="M90.8556 282.36C91.3456 282.36 91.7427 281.963 91.7427 281.473C91.7427 280.983 91.3456 280.586 90.8556 280.586C90.3657 280.586 89.9685 280.983 89.9685 281.473C89.9685 281.963 90.3657 282.36 90.8556 282.36Z" fill="#263238"/>
<path d="M88.6595 280.824C88.7785 280.943 89.4276 280.381 90.3904 280.337C91.3533 280.294 92.0673 280.748 92.1646 280.619C92.262 280.489 92.0997 280.348 91.786 280.132C91.3628 279.856 90.8622 279.723 90.358 279.753C89.8523 279.783 89.3701 279.977 88.984 280.305C88.6919 280.554 88.6054 280.781 88.6595 280.824Z" fill="#263238"/>
<path d="M85.3708 288.819C84.8587 288.686 84.3313 288.62 83.8021 288.624C83.5641 288.624 83.3261 288.57 83.272 288.397C83.2421 288.129 83.291 287.859 83.4127 287.618L84.0618 285.638C84.6816 283.955 85.1699 282.226 85.5222 280.467C84.7951 282.106 84.1842 283.795 83.6939 285.519C83.4667 286.212 83.2612 286.882 83.0665 287.51C82.918 287.824 82.8836 288.18 82.9691 288.516C83.0057 288.602 83.0619 288.678 83.1333 288.738C83.2047 288.798 83.2893 288.841 83.3802 288.862C83.5165 288.883 83.655 288.883 83.7913 288.862C84.3176 288.912 84.848 288.897 85.3708 288.819Z" fill="#263238"/>
<path d="M88.5405 289.727C87.1396 290.614 85.5498 291.159 83.8994 291.318C84.2508 291.804 84.7561 292.157 85.3334 292.32C85.9108 292.483 86.5263 292.446 87.08 292.216C89.1247 291.361 88.5405 289.727 88.5405 289.727Z" fill="white"/>
<path d="M85.111 300.686C88.4144 300.548 91.6092 299.467 94.3174 297.57C94.3174 297.57 92.2295 302.677 85.2624 302.395L85.111 300.686Z" fill="#A36957"/>
<path d="M113.715 279.558C113.715 279.558 116.549 295.581 103.016 298.469L103.416 279.169L113.715 279.558Z" fill="#263238"/>
<path d="M113.271 276.01C112.427 272.582 110.847 269.378 108.641 266.62C110.588 267.431 111.887 268.243 112.157 267.983C112.428 267.724 111.93 267.237 111.075 266.512C109.965 265.604 108.696 264.91 107.332 264.467L106.694 264.294C107.587 263.939 108.402 263.413 109.096 262.747C109.925 261.97 110.499 260.959 110.741 259.848C110.982 258.737 110.88 257.579 110.448 256.527C109.959 255.633 109.216 254.904 108.313 254.432C107.41 253.96 106.387 253.767 105.374 253.877C104.368 254.019 103.409 254.395 102.574 254.976C101.74 255.557 101.054 256.325 100.571 257.219C100.338 257.647 100.146 258.096 99.9973 258.561C100.03 257.792 100.11 257.026 100.235 256.267C100.668 253.595 101.663 251.594 101.501 251.507C100.475 252.866 99.8356 254.477 99.6511 256.17C99.6511 256.43 99.5862 256.678 99.5537 256.927C99.3413 256.236 99.0811 255.56 98.7748 254.904C98.1149 253.509 97.4874 252.741 97.3035 252.86C96.9248 253.044 98.1581 255.975 98.6666 259.935C97.4496 259.53 96.1829 259.293 94.9018 259.231C92.5434 259.231 88.6271 258.15 83.0881 262.596C81.2127 263.793 79.5915 265.348 78.3172 267.172C76.4867 269.851 75.4549 272.995 75.3421 276.237C75.3086 277.211 75.3702 278.186 75.526 279.147C75.5591 279.502 75.6504 279.85 75.7965 280.175C75.9046 280.175 75.5909 278.671 75.7965 276.259C75.9182 274.47 76.3159 272.712 76.9757 271.045C76.1515 273.929 76.3347 277.008 77.495 279.775L89.882 277.838C89.0815 275.123 89.6657 270.818 90.0443 268.708C92.208 278.823 100.917 283.68 100.917 283.68L113.953 281.636C113.769 280.456 113.553 277.07 113.271 276.01Z" fill="#263238"/>
<path d="M143.26 430.946C143.66 431.14 175.618 437.437 174.439 433.109C173.26 428.782 143.541 421.988 143.541 421.988L143.26 430.946Z" fill="#3E0AD4"/>
<path d="M157.789 428.122C157.941 428.122 158.168 428.858 158.157 429.82C158.146 430.783 157.919 431.541 157.768 431.519C157.616 431.497 157.584 430.74 157.594 429.82C157.605 428.901 157.638 428.133 157.789 428.122Z" fill="#263238"/>
<path d="M156.091 427.538C156.231 427.538 156.513 428.392 156.404 429.517C156.296 430.643 155.896 431.465 155.755 431.411C155.615 431.357 155.755 430.513 155.842 429.463C155.928 428.414 155.928 427.559 156.091 427.538Z" fill="#263238"/>
<path d="M154.024 427.365C154.176 427.365 154.392 428.208 154.414 429.29C154.435 430.372 154.252 431.238 154.1 431.227C153.949 431.216 153.873 430.361 153.851 429.301C153.83 428.241 153.873 427.375 154.024 427.365Z" fill="#263238"/>
<path d="M150.13 424.238C150.297 424.23 150.465 424.248 150.627 424.292C150.952 424.292 151.428 424.444 152.034 424.584C153.256 424.844 155.02 425.266 157.173 425.861C159.325 426.456 161.879 427.202 164.67 428.154C166.065 428.63 167.547 429.117 168.997 429.756C170.569 430.389 172.013 431.302 173.26 432.449C173.454 432.605 173.613 432.8 173.725 433.023C173.793 433.18 173.804 433.357 173.754 433.521C173.705 433.686 173.598 433.827 173.454 433.921C173.038 434.137 172.571 434.238 172.102 434.213C171.269 434.278 170.447 434.31 169.646 434.332C168.034 434.332 166.476 434.332 164.994 434.213C162.041 434.029 159.401 433.661 157.194 433.315C154.987 432.969 153.213 432.622 151.991 432.374L150.584 432.082C150.416 432.059 150.252 432.011 150.097 431.941C150.744 431.962 151.388 432.035 152.023 432.157L157.248 432.915C159.412 433.218 162.095 433.542 165.027 433.704C166.498 433.78 168.034 433.823 169.635 433.78C170.425 433.78 171.247 433.726 172.059 433.661C172.431 433.682 172.802 433.612 173.141 433.456C173.238 433.38 173.249 433.337 173.216 433.239C173.126 433.092 173.013 432.961 172.881 432.85C171.679 431.75 170.291 430.875 168.781 430.264C167.331 429.637 165.86 429.182 164.453 428.641C161.673 427.678 159.141 426.878 157.01 426.24C154.879 425.601 153.126 425.158 151.926 424.79C151.316 424.645 150.716 424.461 150.13 424.238Z" fill="#263238"/>
<path d="M167.104 428.987C167.255 429.041 166.942 430.253 167.104 431.746C167.266 433.239 167.677 434.397 167.526 434.472C166.95 433.688 166.608 432.756 166.541 431.785C166.474 430.814 166.684 429.844 167.147 428.987H167.104Z" fill="#263238"/>
<path d="M37.6182 424.617C37.1746 424.617 4.92489 429.063 7.42395 432.687C9.92301 436.312 40.2579 433.131 40.2579 433.131L37.6182 424.617Z" fill="#3E0AD4"/>
<path d="M24.7444 432.027C24.6146 432.092 24.1494 431.443 23.8465 430.534C23.5436 429.626 23.5544 428.847 23.6626 428.847C23.7708 428.847 24.0845 429.528 24.3766 430.405C24.6687 431.281 24.8851 431.952 24.7444 432.027Z" fill="#263238"/>
<path d="M26.5508 432.016C26.4209 432.092 25.8692 431.346 25.5988 430.253C25.3283 429.16 25.4473 428.241 25.5988 428.241C25.7502 428.241 25.8909 429.096 26.1505 430.112C26.4101 431.129 26.6914 431.941 26.5508 432.016Z" fill="#263238"/>
<path d="M28.5524 431.508C28.4118 431.573 27.9358 430.826 27.5571 429.81C27.1785 428.793 27.0703 427.916 27.2218 427.873C27.3732 427.83 27.7194 428.63 28.0872 429.615C28.4551 430.599 28.6931 431.443 28.5524 431.508Z" fill="#263238"/>
<path d="M33.2907 433.174C33.1349 433.235 32.9707 433.271 32.8039 433.282L31.3759 433.466C30.1317 433.618 28.3359 433.791 26.1073 433.931C23.8787 434.072 21.2174 434.191 18.2639 434.213C16.7818 434.213 15.2348 434.213 13.612 434.115C11.9213 434.042 10.2592 433.653 8.71127 432.969C8.47368 432.885 8.25626 432.752 8.07298 432.579C7.96578 432.448 7.90723 432.283 7.90723 432.114C7.90723 431.944 7.96578 431.78 8.07298 431.649C8.39145 431.303 8.79965 431.052 9.25219 430.924C10.0203 430.589 10.7776 430.296 11.5349 430.004C13.0495 429.453 14.5424 428.998 15.9704 428.598C18.8265 427.808 21.4446 427.3 23.6407 426.91C25.8368 426.521 27.6327 426.261 28.866 426.099L30.294 425.915C30.4589 425.889 30.6268 425.889 30.7917 425.915C30.1726 426.105 29.5396 426.246 28.8984 426.337L23.7164 427.321C21.5527 427.765 18.9347 428.317 16.1435 429.117C14.7263 429.528 13.255 429.983 11.8162 430.545C11.0697 430.837 10.3124 431.13 9.55511 431.454C9.20227 431.556 8.87932 431.741 8.6139 431.995C8.54899 432.103 8.54899 432.136 8.6139 432.222C8.74927 432.334 8.903 432.422 9.06828 432.482C10.5581 433.126 12.1529 433.492 13.7743 433.564C15.3538 433.693 16.9116 433.683 18.3829 433.693C21.3256 433.693 23.9761 433.629 26.2047 433.542C28.4332 433.455 30.2291 433.326 31.4732 433.25C32.0767 433.184 32.6839 433.159 33.2907 433.174Z" fill="#263238"/>
<path d="M15.6677 434.256C15.4946 434.256 15.408 433.012 14.8022 431.638C14.1964 430.264 13.3958 429.312 13.5148 429.204C13.6338 429.095 14.694 429.907 15.3215 431.367C15.8035 432.25 15.9274 433.284 15.6677 434.256Z" fill="#263238"/>
<path d="M137.613 385.467H121.201L60.6183 387.035L43.3088 384.796C40.6151 384.201 38.8408 383.952 38.2674 384.136C35.9424 385.105 33.9049 386.655 32.3498 388.636C25.7505 396.512 29.9048 408.649 39.8361 411.354L49.1616 413.885L28.7581 420.441L35.6494 440C35.6494 440 66.1141 433.412 95.6592 426.456L142.936 439.243L149.751 417.293L141.735 414.686C146.765 413.15 149.946 411.938 150.39 411.203C153.365 406.594 158.633 385.164 137.537 385.488" fill="#455A64"/>
<path opacity="0.2" d="M141.475 414.762L106.337 429.312L95.7131 426.435L141.475 414.762Z" fill="black"/>
<path opacity="0.2" d="M49.313 387.111L94.296 399.996L128.558 388.312L49.313 387.111Z" fill="black"/>
<path d="M42.9083 438.584C42.3339 437.694 41.8517 436.748 41.4695 435.76C40.6689 433.975 39.6304 431.433 38.6134 428.663C37.5965 425.894 36.7635 423.254 36.2334 421.393C35.891 420.392 35.6482 419.359 35.5085 418.31C35.9492 419.267 36.3111 420.258 36.5904 421.274C37.2179 423.124 38.0941 425.677 39.1111 428.468C40.128 431.26 41.1125 433.78 41.8157 435.598C42.2554 436.564 42.6207 437.562 42.9083 438.584Z" fill="#263238"/>
<path d="M151.352 392.758C151.265 392.811 151.17 392.851 151.071 392.877L150.227 393.191L146.982 394.337L134.984 398.416C124.804 401.813 110.718 406.41 95.1073 411.311C79.4963 416.211 65.3025 420.484 55.0142 423.513L42.811 427.04L39.4898 427.96L38.6135 428.187C38.5153 428.218 38.4134 428.236 38.3105 428.241L38.6026 428.133L39.4573 427.851L42.7028 426.824L54.8519 423.124C65.1186 420.008 79.2799 415.67 94.8801 410.77C110.48 405.869 124.587 401.337 134.789 398.037L146.884 394.132L150.184 393.05L151.038 392.79C151.141 392.764 151.247 392.753 151.352 392.758Z" fill="#263238"/>
<path d="M118.594 391.968C118.376 392.093 118.143 392.191 117.902 392.26L115.89 392.996C114.137 393.623 111.562 394.51 108.425 395.581C102.107 397.745 93.3548 400.601 83.6723 403.706C73.9898 406.81 65.1836 409.547 58.7899 411.473C55.5444 412.436 53.002 413.193 51.217 413.701L49.1507 414.275C48.9095 414.346 48.6637 414.4 48.415 414.437C48.6381 414.32 48.8741 414.229 49.1182 414.167L51.1521 413.496L58.725 411.094L83.5424 403.176L108.338 395.203L115.857 392.79L117.913 392.152C118.133 392.067 118.361 392.005 118.594 391.968Z" fill="#263238"/>
<path d="M94.0687 399.92C94.0687 400.071 83.9751 397.323 71.6096 393.786C59.2442 390.248 49.2696 387.295 49.3129 387.111C49.3562 386.927 59.4065 389.707 71.7611 393.245C84.1157 396.783 94.112 399.768 94.0687 399.92Z" fill="#263238"/>
<path d="M143.195 415.8C142.086 419.451 140.794 423.044 139.322 426.565C137.04 432.45 135.071 437.167 134.93 437.112C136.036 433.464 137.329 429.875 138.803 426.359C141.086 420.474 143.055 415.746 143.195 415.8Z" fill="#263238"/>
<path d="M138.976 424.866C135.992 424.351 133.041 423.661 130.137 422.8C127.201 422.106 124.311 421.231 121.483 420.181C124.467 420.694 127.419 421.384 130.321 422.248C133.257 422.942 136.148 423.816 138.976 424.866Z" fill="#263238"/>
<path d="M71.6854 406.93C71.1187 406.862 70.5581 406.749 70.0086 406.595L65.4865 405.513C61.6784 404.539 56.4098 403.219 50.6652 401.488C45.7411 400.041 40.9166 398.274 36.2227 396.198C34.4376 395.376 32.9771 394.662 32.0467 394.132C31.5291 393.888 31.0363 393.595 30.5754 393.256C31.1152 393.442 31.6397 393.67 32.1441 393.937C33.1394 394.402 34.5783 395.019 36.3849 395.83C41.1049 397.791 45.9259 399.499 50.8275 400.947C56.5613 402.678 61.8082 404.052 65.5947 405.123L70.0627 406.411C70.6196 406.529 71.1633 406.703 71.6854 406.93Z" fill="#263238"/>
<path d="M104.941 308.237H103.611L103.416 303.628L85.1436 304.71C85.1436 304.71 85.3275 306.874 85.3167 308.378C74.0655 309.459 56.0312 315.236 55.5985 340.561L70.0303 340.896C68.8078 352.515 68.9484 359.449 67.7692 363.809C65.757 371.014 59.385 386.224 60.6615 386.992C61.9381 387.76 121.158 388.853 123.982 387.316C126.805 385.78 121.667 365.929 120.379 360.542C119.568 357.102 119.395 349.226 119.373 343.136L135.947 342.389C135.947 342.389 137.148 308.14 104.941 308.237Z" fill="#3E0AD4"/>
<path d="M103.513 308.053C102.64 308.311 101.739 308.463 100.83 308.507C99.1533 308.702 96.8382 308.886 94.2742 308.94C91.7103 308.994 89.3951 308.94 87.7183 308.789C86.8067 308.774 85.8996 308.658 85.0137 308.443C85.9148 308.335 86.8244 308.317 87.7291 308.388C89.406 308.388 91.7103 308.388 94.2202 308.388C96.73 308.388 99.0776 308.215 100.711 308.129C101.641 308.014 102.579 307.988 103.513 308.053Z" fill="#263238"/>
<path d="M88.4647 304.559C88.627 304.559 88.746 305.446 88.746 306.539C88.746 307.631 88.627 308.529 88.4647 308.529C88.3025 308.529 88.1835 307.642 88.1835 306.539C88.1835 305.435 88.2592 304.559 88.4647 304.559Z" fill="#263238"/>
<path d="M93.3007 304.213C93.4522 304.213 93.6036 305.186 93.6361 306.376C93.7351 307.105 93.6609 307.846 93.4197 308.54C93.2574 308.54 93.106 307.566 93.0735 306.376C92.9711 305.647 93.0492 304.904 93.3007 304.213Z" fill="#263238"/>
<path d="M98.3421 304.04C98.4935 304.04 98.7099 304.992 98.7315 306.203C98.7532 307.415 98.5909 308.367 98.4286 308.367C98.1925 307.672 98.1041 306.935 98.169 306.203C98.2014 305.035 98.2014 304.05 98.3421 304.04Z" fill="#263238"/>
<path d="M101.999 303.866C102.161 303.866 102.269 304.818 102.421 305.976C102.572 307.134 102.691 308.086 102.54 308.14C102.388 308.194 102.01 307.263 101.869 306.052C101.728 304.84 101.847 303.856 101.999 303.866Z" fill="#263238"/>
<path d="M72.3128 340.626C72.0217 338.839 71.9129 337.027 71.9883 335.217C71.8736 333.411 71.9534 331.597 72.2263 329.808C72.5121 331.596 72.6208 333.408 72.5508 335.217C72.6516 337.024 72.5719 338.836 72.3128 340.626Z" fill="#263238"/>
<path d="M118.756 342.433C118.318 340.514 118.057 338.558 117.977 336.591C117.717 334.637 117.648 332.662 117.772 330.695C118.466 334.568 118.796 338.498 118.756 342.433Z" fill="#263238"/>
<path d="M72.3129 340.626C71.4882 340.735 70.6545 340.761 69.8247 340.702H63.8637H57.892C57.0657 340.761 56.2356 340.736 55.4146 340.626C56.2204 340.419 57.0491 340.313 57.8812 340.312C59.4066 340.193 61.527 340.107 63.8637 340.118C66.2005 340.128 68.3209 340.204 69.8463 340.323C70.6776 340.326 71.5056 340.428 72.3129 340.626Z" fill="#263238"/>
<path d="M135.914 342.433C132.984 342.718 130.039 342.811 127.097 342.714C124.152 342.812 121.203 342.718 118.269 342.433C121.203 342.154 124.152 342.06 127.097 342.151C130.039 342.06 132.984 342.154 135.914 342.433Z" fill="#263238"/>
<path d="M135.19 342.573C135.19 342.573 139.517 382.957 127.141 386.927C114.764 390.897 90.358 372.096 90.358 372.096L97.39 357.859C97.39 357.859 113.618 369.131 117.123 366.589C120.628 364.047 118.8 342.573 118.8 342.573H135.19Z" fill="#B78876"/>
<path d="M55.804 340.626C55.804 340.626 51.4009 380.598 63.7664 384.579C76.1318 388.56 100.549 369.737 100.549 369.737L93.5062 355.501C93.5062 355.501 77.1812 365.94 73.795 363.301C71.8369 361.764 71.7828 340.832 71.7828 340.832C66.0274 340.583 60.6939 340.334 55.804 340.626Z" fill="#B78876"/>
<path d="M127.487 348.956L119.276 389.199C119.276 389.199 68.8185 388.809 68.2992 388.658C67.7799 388.506 62.89 348.956 62.89 348.956H127.487Z" fill="#263238"/>
<path d="M91.2451 369.348C91.2039 369.954 91.3459 370.559 91.6527 371.083C91.9595 371.607 92.417 372.027 92.9656 372.289C93.5142 372.55 94.1286 372.64 94.7291 372.547C95.3296 372.455 95.8883 372.183 96.3328 371.769C96.7772 371.355 97.0868 370.817 97.2213 370.224C97.3558 369.632 97.3091 369.012 97.0871 368.447C96.8651 367.881 96.4782 367.395 95.9766 367.053C95.475 366.71 94.8819 366.526 94.2743 366.524C93.4992 366.501 92.7462 366.784 92.179 367.313C91.6117 367.842 91.2761 368.573 91.2451 369.348Z" fill="white"/>
<path d="M101.847 281.051C102.304 280.769 102.824 280.604 103.36 280.572C103.897 280.54 104.432 280.641 104.92 280.867C105.542 281.37 105.952 282.088 106.066 282.88C106.212 283.52 106.204 284.186 106.044 284.823C105.884 285.46 105.577 286.051 105.147 286.547C104.698 287.026 104.098 287.336 103.448 287.425C102.798 287.513 102.137 287.375 101.577 287.034" fill="#B78876"/>
<path d="M103.145 285.93C103.145 285.844 103.492 285.79 103.892 285.487C104.156 285.316 104.37 285.077 104.51 284.795C104.651 284.514 104.714 284.2 104.692 283.886C104.662 283.576 104.551 283.279 104.37 283.025C104.19 282.771 103.947 282.568 103.665 282.436C103.21 282.22 102.864 282.231 102.853 282.144C102.842 282.057 103.199 281.895 103.805 282.047C104.201 282.164 104.552 282.397 104.814 282.716C105.076 283.035 105.237 283.424 105.275 283.835C105.314 284.246 105.228 284.659 105.03 285.021C104.831 285.383 104.529 285.677 104.162 285.865C103.535 286.103 103.145 286.049 103.145 285.93Z" fill="#A36957"/>
</svg>
